<svg width="148" height="58" viewBox="0 0 148 58" fill="none" xmlns="http://www.w3.org/2000/svg">
<rect y="58" width="4" height="24" transform="rotate(-90 0 58)" fill="black"/>
<rect y="48" width="4" height="24" transform="rotate(-90 0 48)" fill="black"/>
<rect y="38" width="4" height="24" transform="rotate(-90 0 38)" fill="black"/>
<rect x="29" y="25" width="4" height="24" transform="rotate(-90 29 25)" fill="black"/>
<rect x="29" y="15" width="4" height="24" transform="rotate(-90 29 15)" fill="black"/>
<rect x="29" y="5" width="4" height="24" transform="rotate(-90 29 5)" fill="black"/>
<rect x="53" y="58" width="4" height="24" transform="rotate(-180 53 58)" fill="black"/>
<rect x="43" y="58" width="4" height="24" transform="rotate(-180 43 58)" fill="black"/>
<rect x="33" y="58" width="4" height="24" transform="rotate(-180 33 58)" fill="black"/>
<rect x="24" y="25" width="4" height="24" transform="rotate(-180 24 25)" fill="black"/>
<rect x="14" y="25" width="4" height="24" transform="rotate(-180 14 25)" fill="black"/>
<rect x="4" y="25" width="4" height="24" transform="rotate(-180 4 25)" fill="black"/>
<path d="M85.7031 19.4062L85.2812 19.5C85.4062 19.6875 85.5938 19.8047 85.8438 19.8516C86.0625 19.8984 86.2656 19.9844 86.4531 20.1094C86.5781 20.1406 86.6875 20.1641 86.7812 20.1797C86.8906 20.1953 86.9766 20.2109 87.0391 20.2266L87.4844 20.2969C87.7031 20.5156 87.8281 20.625 87.8594 20.625C87.875 20.625 87.875 20.6562 87.8594 20.7188C88.2656 21.0938 88.6406 21.5156 88.9844 21.9844C89.0469 22.0781 89.1016 22.2422 89.1484 22.4766C89.1953 22.7266 89.25 22.9219 89.3125 23.0625C89.3594 23.1719 89.3984 23.3281 89.4297 23.5312L89.5 24C89.5625 24.4844 89.5312 24.9688 89.4062 25.4531C89.2812 25.9219 89.1875 26.3594 89.125 26.7656C88.9688 26.9688 88.8906 27.1875 88.8906 27.4219C88.8906 27.6719 88.8594 27.8906 88.7969 28.0781C88.7812 28.1406 88.7422 28.2344 88.6797 28.3594C88.6172 28.4688 88.5781 28.5781 88.5625 28.6875C88.4688 29.1406 88.3203 29.5234 88.1172 29.8359C88.0078 29.9922 87.9062 30.1562 87.8125 30.3281C87.7344 30.5 87.6562 30.6719 87.5781 30.8438C87.5469 31.0625 87.5 31.2656 87.4375 31.4531C87.3594 31.6406 87.3125 31.8125 87.2969 31.9688C87.2656 32.0938 87.1953 32.2031 87.0859 32.2969C86.9609 32.3906 86.9375 32.5 87.0156 32.625C86.7656 32.7344 86.6406 32.9219 86.6406 33.1875C86.5469 33.2812 86.4609 33.3516 86.3828 33.3984C86.2891 33.4609 86.2031 33.5781 86.125 33.75C85.7344 34.0156 85.4453 34.2422 85.2578 34.4297C85.1953 34.4922 85.125 34.5625 85.0469 34.6406C84.9688 34.7031 84.8906 34.7656 84.8125 34.8281C84.7031 34.8906 84.5859 34.9844 84.4609 35.1094C84.3516 35.2188 84.2344 35.3125 84.1094 35.3906C84.0625 35.4219 84.0156 35.4531 83.9688 35.4844C83.9219 35.5156 83.8672 35.5469 83.8047 35.5781C83.7422 35.6094 83.6875 35.6406 83.6406 35.6719C83.5938 35.7031 83.5469 35.7344 83.5 35.7656C83.2812 35.9219 83.0625 36.0703 82.8438 36.2109C82.625 36.3516 82.3906 36.5 82.1406 36.6562C81.9531 36.75 81.7891 36.8438 81.6484 36.9375C81.5234 37.0156 81.375 37.0938 81.2031 37.1719C81.0312 37.25 80.8516 37.2969 80.6641 37.3125C80.4766 37.3281 80.2969 37.375 80.125 37.4531C79.5 37.5469 78.8906 37.5 78.2969 37.3125C77.7031 37.125 77.1875 36.9219 76.75 36.7031C76.3906 36.5312 76.0078 36.3906 75.6016 36.2812C75.1641 36.1562 74.7969 35.9688 74.5 35.7188C74 35.3125 73.6406 34.7891 73.4219 34.1484C73.2031 33.4922 72.9219 32.8906 72.5781 32.3438C72.6094 32.1094 72.5703 31.9375 72.4609 31.8281C72.3672 31.7344 72.2656 31.5938 72.1562 31.4062C72.1094 31.2969 72.0391 31.1641 71.9453 31.0078C71.8984 30.9297 71.8281 30.8281 71.7344 30.7031C71.6719 30.4688 71.6172 30.2891 71.5703 30.1641C71.5391 30.0234 71.5156 29.9375 71.5 29.9062C71.1094 29.9844 70.8594 30.1953 70.75 30.5391C70.625 30.8984 70.4688 31.2344 70.2812 31.5469C70.25 31.7344 70.1953 31.8984 70.1172 32.0391C70.0391 32.1797 69.9531 32.3281 69.8594 32.4844C69.7969 32.625 69.7656 32.7656 69.7656 32.9062C69.7656 33.0156 69.7031 33.1094 69.5781 33.1875C69.1875 33.2188 68.9844 33.3125 68.9688 33.4688C68.9531 33.625 68.8594 33.6875 68.6875 33.6562C68.7188 33.875 68.6719 34.0703 68.5469 34.2422C68.4219 34.4297 68.3906 34.625 68.4531 34.8281C68.4375 34.9531 68.3828 35.0781 68.2891 35.2031C68.2109 35.3125 68.1406 35.4375 68.0781 35.5781C67.8594 35.6719 67.5703 35.75 67.2109 35.8125C66.8516 35.875 66.5938 35.7969 66.4375 35.5781C65.8438 35.4531 65.5469 35.2344 65.5469 34.9219C65.5469 34.8125 65.5859 34.7188 65.6641 34.6406C65.7422 34.5625 65.75 34.4531 65.6875 34.3125C65.875 33.8594 66.1406 33.4141 66.4844 32.9766C66.7969 32.5547 67.0469 32.1094 67.2344 31.6406C67.3594 31.4219 67.4844 31.2031 67.6094 30.9844C67.7344 30.75 67.8516 30.5234 67.9609 30.3047C68.0859 30.0859 68.2031 29.8672 68.3125 29.6484C68.4375 29.4141 68.5625 29.1875 68.6875 28.9688C68.9375 28.4375 69.2031 27.9531 69.4844 27.5156C69.625 27.2969 69.7578 27.0703 69.8828 26.8359C70.0078 26.5859 70.125 26.3281 70.2344 26.0625C70.3438 25.8281 70.3594 25.625 70.2812 25.4531C70.5938 24.5312 70.9688 23.6875 71.4062 22.9219C71.8594 22.1406 72.2812 21.3438 72.6719 20.5312C72.8438 19.9375 73.0625 19.3984 73.3281 18.9141C73.6406 18.3516 73.8906 17.8125 74.0781 17.2969L74.9922 15.5625C75.1172 15.3125 75.25 15.0625 75.3906 14.8125C75.5312 14.5469 75.6719 14.2812 75.8125 14.0156C76.0469 13.7188 76.1953 13.4453 76.2578 13.1953C76.3203 12.9141 76.4531 12.6875 76.6562 12.5156C76.7344 12.3438 76.8047 12.2031 76.8672 12.0938C76.9453 11.9688 77.0156 11.8281 77.0781 11.6719C77.3281 11.0781 77.5625 10.6172 77.7812 10.2891C78 9.97656 78.1406 9.65625 78.2031 9.32812C78.3594 9.17187 78.5078 8.96094 78.6484 8.69531C78.7891 8.42969 78.9219 8.17188 79.0469 7.92188C79.0781 7.84375 79.1094 7.75781 79.1406 7.66406C79.1875 7.57031 79.2422 7.46875 79.3047 7.35938C79.3984 7.1875 79.5 6.95313 79.6094 6.65625C79.7188 6.48438 79.7969 6.3125 79.8438 6.14062C80 5.98437 80.1094 5.80469 80.1719 5.60156C80.2344 5.41406 80.3281 5.23437 80.4531 5.0625C80.2344 4.84375 79.9688 4.79688 79.6562 4.92188C79.3438 5.04687 79.0469 5.1875 78.7656 5.34375C78.2344 5.5625 77.7344 5.79687 77.2656 6.04688C76.7969 6.29688 76.3438 6.54687 75.9062 6.79688C75.4688 7.04688 75.0078 7.21875 74.5234 7.3125L73.1875 7.59375C72.9375 7.42188 72.7734 7.39844 72.6953 7.52344C72.6328 7.63281 72.5156 7.64062 72.3438 7.54688C72.2812 7.54688 72.2109 7.57031 72.1328 7.61719C72.0703 7.66406 71.9531 7.6875 71.7812 7.6875C71.6875 7.51563 71.7109 7.39844 71.8516 7.33594C71.9922 7.25781 72.0781 7.15625 72.1094 7.03125C72.8438 6.57813 73.5938 6.17969 74.3594 5.83594C75.1406 5.47656 75.8906 5.07813 76.6094 4.64062C77 4.40625 77.3672 4.19531 77.7109 4.00781C78.0547 3.82031 78.375 3.65625 78.6719 3.51562C79.3281 3.20313 79.9219 2.875 80.4531 2.53125C80.8125 2.40625 81.1562 2.28125 81.4844 2.15625C81.8281 2.01562 82.1484 1.86719 82.4453 1.71094C83.0234 1.42969 83.7344 1.25 84.5781 1.17188C84.9375 0.953125 85.3281 0.867188 85.75 0.914062C86.2031 0.960938 86.6094 0.90625 86.9688 0.75C87.0938 0.75 87.2344 0.75 87.3906 0.75C87.5469 0.75 87.7109 0.742188 87.8828 0.726562C88.0547 0.710937 88.2266 0.710937 88.3984 0.726562C88.5703 0.726562 88.7344 0.734375 88.8906 0.75C89.6094 0.78125 90.1641 0.8125 90.5547 0.84375C90.9453 0.875 91.3125 0.9375 91.6562 1.03125C91.7188 1.04688 91.7812 1.0625 91.8438 1.07812C91.9219 1.09375 91.9922 1.10937 92.0547 1.125C92.1328 1.14063 92.2031 1.15625 92.2656 1.17188C92.3281 1.1875 92.3906 1.20312 92.4531 1.21875C92.625 1.28125 92.7969 1.34375 92.9688 1.40625C93.1562 1.45312 93.3359 1.49219 93.5078 1.52344C93.8672 1.58594 94.1719 1.70313 94.4219 1.875C94.8906 2.28125 95.2422 2.61719 95.4766 2.88281C95.7109 3.14844 95.875 3.46875 95.9688 3.84375C96.1562 4.29687 96.3281 4.6875 96.4844 5.01562C96.6562 5.35938 96.75 5.73438 96.7656 6.14062C96.7969 6.35937 96.8047 6.53125 96.7891 6.65625C96.7734 6.75 96.7656 6.85156 96.7656 6.96094C96.7656 7.05469 96.7656 7.15625 96.7656 7.26562C96.75 7.54688 96.75 7.83594 96.7656 8.13281C96.7812 8.42969 96.7812 8.75 96.7656 9.09375C96.7031 9.8125 96.5 10.5469 96.1562 11.2969C96 11.625 95.8984 11.9688 95.8516 12.3281C95.8047 12.6562 95.6719 12.9688 95.4531 13.2656L95.0078 14.0859C94.9453 14.1953 94.8828 14.3047 94.8203 14.4141C94.7734 14.5078 94.7188 14.6094 94.6562 14.7188L94.4453 14.9062C94.3516 15 94.2969 15.0938 94.2812 15.1875C93.8906 15.5 93.5625 15.7891 93.2969 16.0547C93 16.3516 92.625 16.5938 92.1719 16.7812C91.8594 17.0938 91.5078 17.3828 91.1172 17.6484C90.7266 17.9141 90.3438 18.1719 89.9688 18.4219C89.8438 18.5156 89.7422 18.5859 89.6641 18.6328C89.5078 18.7266 89.3594 18.7812 89.2188 18.7969C88.9688 18.8594 88.7578 18.9062 88.5859 18.9375C88.3984 18.9688 88.1719 19.0156 87.9062 19.0781C87.5312 19.1094 87.1562 19.1562 86.7812 19.2188C86.4062 19.2812 86.0469 19.3438 85.7031 19.4062ZM82.5156 17.7656V17.625C82.9688 17.4375 83.4062 17.2422 83.8281 17.0391C84.0469 16.9297 84.2656 16.8359 84.4844 16.7578C84.7031 16.6641 84.9219 16.5781 85.1406 16.5C85.3906 16.4375 85.625 16.375 85.8438 16.3125C86.0625 16.25 86.2656 16.1719 86.4531 16.0781L87.1562 15.6562C87.2188 15.625 87.2812 15.5938 87.3438 15.5625C87.4062 15.5156 87.4688 15.4688 87.5312 15.4219C87.75 15.3125 87.9297 15.1875 88.0703 15.0469C88.2109 14.9062 88.375 14.7812 88.5625 14.6719C88.6562 14.5938 88.75 14.5234 88.8438 14.4609C88.9375 14.3984 89.0234 14.3359 89.1016 14.2734C89.1797 14.2109 89.2656 14.1484 89.3594 14.0859C89.4531 14.0234 89.5469 13.9531 89.6406 13.875C89.7656 13.7656 89.8984 13.6797 90.0391 13.6172C90.1797 13.5547 90.3125 13.4688 90.4375 13.3594C90.6719 13.125 90.8516 12.8906 90.9766 12.6562C91.1016 12.4219 91.2812 12.2031 91.5156 12C91.6719 11.6875 91.8125 11.375 91.9375 11.0625C92.0625 10.75 92.1719 10.4219 92.2656 10.0781L92.5469 9.25781C92.5938 9.13281 92.6328 9.00781 92.6641 8.88281C92.7109 8.74219 92.75 8.60937 92.7812 8.48438C92.7969 8.1875 92.8359 7.96875 92.8984 7.82812C92.9453 7.71875 92.9531 7.59375 92.9219 7.45312C92.9219 7.32813 92.8906 7.20312 92.8281 7.07812C92.7656 6.95313 92.7031 6.84375 92.6406 6.75C92.4844 6.39063 92.2969 6.0625 92.0781 5.76562C91.8906 5.48438 91.6875 5.17188 91.4688 4.82812C91.1875 4.60938 90.8516 4.39844 90.4609 4.19531C90.0703 3.99219 89.6406 3.96875 89.1719 4.125C89.1094 4.0625 89 4.02344 88.8438 4.00781C88.6875 3.99219 88.5781 4.01562 88.5156 4.07812C88.1719 4.03125 87.7188 4.04688 87.1562 4.125C86.6094 4.20312 86.2031 4.28125 85.9375 4.35938C85.8906 4.40625 85.8281 4.49219 85.75 4.61719C85.7188 4.67969 85.6875 4.73438 85.6562 4.78125C85.625 4.82812 85.5938 4.875 85.5625 4.92188C85.4062 5.20312 85.2578 5.39844 85.1172 5.50781C84.9766 5.63281 84.8281 5.8125 84.6719 6.04688C84.5469 6.20313 84.4375 6.34375 84.3438 6.46875C84.25 6.59375 84.1719 6.73437 84.1094 6.89062C83.9531 6.95313 83.8516 7.03125 83.8047 7.125C83.7422 7.25 83.6875 7.34375 83.6406 7.40625C83.4688 7.48437 83.375 7.60938 83.3594 7.78125C83.3438 7.95312 83.2656 8.07813 83.125 8.15625C82.875 8.53125 82.6953 8.85156 82.5859 9.11719C82.4766 9.38281 82.3438 9.73437 82.1875 10.1719C82.0625 10.4062 81.9453 10.6328 81.8359 10.8516C81.7266 11.0703 81.6172 11.2891 81.5078 11.5078L80.875 12.7969C80.8438 12.8906 80.8125 12.9844 80.7812 13.0781C80.75 13.1562 80.7188 13.2344 80.6875 13.3125L80.5 13.7812C80.4375 13.8906 80.3281 14.0391 80.1719 14.2266C80.1094 14.2891 80.0469 14.3594 79.9844 14.4375C79.9219 14.5156 79.8594 14.5938 79.7969 14.6719C79.4531 15.2031 79.1641 15.7344 78.9297 16.2656C78.7109 16.7656 78.4375 17.2812 78.1094 17.8125C77.7656 18.3281 77.4375 18.8438 77.125 19.3594C76.8125 19.875 76.5156 20.3906 76.2344 20.9062C76.0781 21.0156 76.0078 21.1562 76.0234 21.3281C76.0391 21.4688 75.9531 21.5781 75.7656 21.6562C75.6406 21.8281 75.5234 21.9844 75.4141 22.125C75.3203 22.25 75.2344 22.3594 75.1562 22.4531C75.0938 22.5781 75.0312 22.7031 74.9688 22.8281C74.9062 22.9531 74.8438 23.0938 74.7812 23.25C74.7344 23.3281 74.6875 23.4141 74.6406 23.5078C74.5938 23.5859 74.5391 23.6641 74.4766 23.7422C74.3984 23.8516 74.3125 24.0156 74.2188 24.2344C74.0469 24.625 73.875 24.9609 73.7031 25.2422L73.1875 26.1562C73.1562 26.2188 73.125 26.2812 73.0938 26.3438C73.0625 26.3906 73.0312 26.4375 73 26.4844L72.8125 26.7656C72.75 27 72.7031 27.1328 72.6719 27.1641C72.625 27.2109 72.5938 27.25 72.5781 27.2812C72.5469 27.4531 72.5625 27.5859 72.625 27.6797L72.8125 28.0312C72.8438 28.1562 72.8594 28.2422 72.8594 28.2891C72.8594 28.3359 72.875 28.4219 72.9062 28.5469C72.9688 28.7188 73.0234 28.8672 73.0703 28.9922C73.1328 29.1016 73.1797 29.1953 73.2109 29.2734C73.2422 29.3359 73.2812 29.4219 73.3281 29.5312C73.3906 29.6406 73.4531 29.7656 73.5156 29.9062C73.5781 30.0156 73.625 30.125 73.6562 30.2344C73.6875 30.3281 73.7344 30.4219 73.7969 30.5156C73.8281 30.5781 73.8594 30.6406 73.8906 30.7031C73.9219 30.75 73.9453 30.7969 73.9609 30.8438L74.125 31.2188C74.3125 31.5938 74.5469 31.9219 74.8281 32.2031C75.1094 32.4688 75.375 32.7812 75.625 33.1406C75.8906 33.3281 76.2109 33.4062 76.5859 33.375C76.9453 33.3438 77.2969 33.3438 77.6406 33.375C77.9531 33.25 78.2734 33.2266 78.6016 33.3047C78.9609 33.3828 79.2812 33.4219 79.5625 33.4219C79.6562 33.4062 79.7422 33.3672 79.8203 33.3047C79.8984 33.2578 79.9844 33.2656 80.0781 33.3281L80.6641 33.0469C80.7734 33 80.875 32.9531 80.9688 32.9062C81.0625 32.8594 81.1562 32.8125 81.25 32.7656C81.3906 32.6406 81.5312 32.5234 81.6719 32.4141C81.8125 32.3047 81.9531 32.1953 82.0938 32.0859C82.375 31.8672 82.6094 31.6094 82.7969 31.3125C82.8438 31.2656 82.8984 31.1953 82.9609 31.1016C82.9922 31.0703 83.0156 31.0312 83.0312 30.9844C83.0625 30.9375 83.0938 30.8906 83.125 30.8438C83.25 30.6875 83.3516 30.5234 83.4297 30.3516C83.5078 30.1797 83.5781 30 83.6406 29.8125C83.9844 29.4688 84.25 29.1328 84.4375 28.8047C84.6406 28.4609 84.8594 28.1562 85.0938 27.8906C85.1719 27.625 85.2969 27.4062 85.4688 27.2344C85.6719 27.0312 85.7812 26.7812 85.7969 26.4844C85.7969 25.8906 85.75 25.4453 85.6562 25.1484C85.5625 24.8516 85.4688 24.5625 85.375 24.2812C85.3125 24.1719 85.2812 24.0391 85.2812 23.8828C85.2812 23.7266 85.25 23.5938 85.1875 23.4844C85.0625 23.2969 84.9531 23.125 84.8594 22.9688C84.7656 22.7969 84.6797 22.6484 84.6016 22.5234C84.4609 22.2578 84.2969 22.0469 84.1094 21.8906C84 21.8281 83.8672 21.7969 83.7109 21.7969C83.5547 21.7969 83.4219 21.7656 83.3125 21.7031C82.9688 21.5781 82.625 21.4531 82.2812 21.3281C81.9375 21.2031 81.5625 21.1094 81.1562 21.0469C81 20.9531 80.8594 20.8594 80.7344 20.7656C80.6406 20.6875 80.5 20.6094 80.3125 20.5312C80.1875 20.3281 80.0469 20.2188 79.8906 20.2031C79.8906 20.0156 79.8125 19.8906 79.6562 19.8281C79.5 19.7656 79.3906 19.6562 79.3281 19.5C79.2656 19.3594 79.2344 19.1875 79.2344 18.9844C79.2344 18.7969 79.1875 18.625 79.0938 18.4688C79.2656 18.375 79.4531 18.3359 79.6562 18.3516C79.875 18.3672 80.0625 18.2969 80.2188 18.1406C80.4531 18.1406 80.6719 18.1016 80.875 18.0234C81.0781 17.9453 81.2969 17.875 81.5312 17.8125C81.7344 17.7812 81.9062 17.7891 82.0469 17.8359C82.2031 17.8828 82.3594 17.8594 82.5156 17.7656ZM108.016 24.9375C108.328 25.0156 108.555 25.125 108.695 25.2656C108.805 25.375 108.859 25.5 108.859 25.6406C108.609 25.9844 108.461 26.2109 108.414 26.3203C108.367 26.4297 108.266 26.5156 108.109 26.5781C107.906 26.8906 107.688 27.1875 107.453 27.4688C107.234 27.7344 106.992 27.9922 106.727 28.2422C106.242 28.7109 105.766 29.25 105.297 29.8594C105.094 30.0625 104.953 30.2188 104.875 30.3281C104.797 30.4375 104.656 30.5938 104.453 30.7969C104.078 31.0625 103.766 31.3359 103.516 31.6172C103.375 31.7734 103.227 31.9219 103.07 32.0625C102.93 32.1875 102.781 32.3125 102.625 32.4375C102.547 32.5 102.469 32.5625 102.391 32.625C102.328 32.6719 102.258 32.7266 102.18 32.7891C102.117 32.8516 102.047 32.9141 101.969 32.9766C101.891 33.0391 101.812 33.1094 101.734 33.1875C101.609 33.3125 101.469 33.4375 101.312 33.5625C101.25 33.6094 101.18 33.6641 101.102 33.7266C101.039 33.7734 100.969 33.8281 100.891 33.8906C100.703 34.1094 100.516 34.3281 100.328 34.5469C100.141 34.7656 99.9531 35 99.7656 35.25C99.4375 35.4062 99.125 35.5938 98.8281 35.8125C98.5469 36.0156 98.2188 36.2031 97.8438 36.375C97.6875 36.4688 97.5391 36.6172 97.3984 36.8203C97.2734 37.0078 97.0938 37.1406 96.8594 37.2188C96.6094 37.3125 96.3438 37.3359 96.0625 37.2891C95.7812 37.2422 95.5469 37.1719 95.3594 37.0781C95.1562 36.9375 95.0312 36.8594 94.9844 36.8438C94.8594 36.8125 94.7812 36.7969 94.75 36.7969C94.4531 36.375 94.25 35.9297 94.1406 35.4609C94.0781 35.2109 94.0078 34.9609 93.9297 34.7109C93.8672 34.4609 93.7969 34.2031 93.7188 33.9375C93.6562 33.7812 93.6094 33.6172 93.5781 33.4453C93.5469 33.2734 93.5156 33.0781 93.4844 32.8594L93.4141 32.4844C93.3984 32.4219 93.3828 32.3594 93.3672 32.2969C93.3516 32.2188 93.3281 32.1406 93.2969 32.0625C93.2344 31.9062 93.1719 31.7422 93.1094 31.5703C93.0469 31.3984 93 31.2188 92.9688 31.0312C92.9062 30.6562 92.8828 30.2891 92.8984 29.9297C92.9141 29.5703 92.9531 29.2188 93.0156 28.875C93.2031 27.8438 93.4766 26.8594 93.8359 25.9219C94.1953 24.9844 94.5625 24.0938 94.9375 23.25C95.0156 22.8594 95.1016 22.5625 95.1953 22.3594C95.2891 22.1562 95.3906 21.875 95.5 21.5156C95.6406 21.3438 95.75 21.0938 95.8281 20.7656C95.8594 20.625 95.8906 20.4844 95.9219 20.3438C95.9688 20.2031 96.0156 20.0625 96.0625 19.9219C96.1094 19.7969 96.1641 19.6719 96.2266 19.5469C96.2891 19.4062 96.3516 19.2578 96.4141 19.1016C96.5391 18.8203 96.6406 18.5312 96.7188 18.2344C96.8281 17.875 96.9141 17.5625 96.9766 17.2969C97.0078 17.1406 97.0469 16.9922 97.0938 16.8516C97.1562 16.7109 97.2188 16.5781 97.2812 16.4531C97.4062 16.125 97.5234 15.8047 97.6328 15.4922C97.7578 15.1797 97.875 14.875 97.9844 14.5781C98.0938 14.2812 98.2031 13.9844 98.3125 13.6875C98.4375 13.3906 98.5625 13.0938 98.6875 12.7969C98.7188 12.7031 98.75 12.6094 98.7812 12.5156C98.8125 12.4219 98.8438 12.3281 98.875 12.2344C98.9375 12.0625 99.0312 11.8906 99.1562 11.7188C99.2344 11.5 99.3125 11.3359 99.3906 11.2266C99.5156 11.0391 99.6094 10.8906 99.6719 10.7812C99.6719 10.6094 99.7266 10.4922 99.8359 10.4297C99.9141 10.3828 100 10.2813 100.094 10.125C100.266 9.85938 100.383 9.60938 100.445 9.375C100.508 9.14062 100.625 8.89062 100.797 8.625L101.359 7.92188C101.391 7.85937 101.422 7.79688 101.453 7.73438C101.484 7.67187 101.516 7.60938 101.547 7.54688C101.625 7.42188 101.719 7.3125 101.828 7.21875C102.188 6.65625 102.562 6.09375 102.953 5.53125L104.219 3.75C104.5 3.3125 104.812 2.89844 105.156 2.50781C105.5 2.11719 105.859 1.73438 106.234 1.35938C106.359 1.20312 106.508 1.03125 106.68 0.84375C106.852 0.65625 107.031 0.546875 107.219 0.515625C107.516 0.484375 107.828 0.515625 108.156 0.609375C108.25 0.765625 108.336 0.929688 108.414 1.10156C108.492 1.27344 108.562 1.46875 108.625 1.6875C108.688 2.65625 108.656 3.59375 108.531 4.5C108.406 5.40625 108.266 6.29688 108.109 7.17188C108.078 7.375 108.07 7.52344 108.086 7.61719C108.102 7.71094 108.094 7.85937 108.062 8.0625C108 8.25 107.922 8.49219 107.828 8.78906C107.734 9.08594 107.656 9.35937 107.594 9.60938C107.594 10.0312 107.5 10.4219 107.312 10.7812C107.125 11.125 107 11.4687 106.938 11.8125C106.844 11.875 106.789 11.9766 106.773 12.1172C106.758 12.2578 106.703 12.3594 106.609 12.4219C106.531 12.7812 106.43 13.0938 106.305 13.3594C106.164 13.6406 106.047 13.9219 105.953 14.2031C105.719 14.5312 105.484 14.8516 105.25 15.1641C105.016 15.4766 104.773 15.7891 104.523 16.1016C104.273 16.3984 104.031 16.7109 103.797 17.0391C103.578 17.3516 103.359 17.6719 103.141 18C102.594 18.8281 102.023 19.6094 101.43 20.3438C100.836 21.0781 100.266 21.8594 99.7188 22.6875C99.2812 23.0781 98.9375 23.4688 98.6875 23.8594C98.4219 24.2812 98.0625 24.6719 97.6094 25.0312C97.5312 25.3438 97.4531 25.6719 97.375 26.0156C97.3125 26.3594 97.2422 26.7109 97.1641 27.0703C97.1016 27.4297 97.0312 27.7969 96.9531 28.1719C96.875 28.5469 96.7969 28.9219 96.7188 29.2969C96.7031 29.5 96.6562 29.7109 96.5781 29.9297C96.5469 30.0391 96.5156 30.1484 96.4844 30.2578C96.4531 30.3516 96.4219 30.4531 96.3906 30.5625C96.3281 30.7812 96.3125 31.0469 96.3438 31.3594C96.3594 31.6406 96.3125 31.9062 96.2031 32.1562C96.25 32.2812 96.2891 32.4609 96.3203 32.6953C96.3359 32.8984 96.3906 33.0781 96.4844 33.2344C96.6562 33.5156 96.8438 33.6562 97.0469 33.6562C97.2812 33.5312 97.4062 33.4766 97.4219 33.4922C97.4375 33.5078 97.4844 33.5 97.5625 33.4688C97.7188 33.375 97.875 33.25 98.0312 33.0938C98.1875 32.9375 98.3281 32.7969 98.4531 32.6719C98.625 32.5938 98.7422 32.5234 98.8047 32.4609C98.8516 32.4141 98.9375 32.3438 99.0625 32.25C99.1562 32.1875 99.2422 32.1406 99.3203 32.1094C99.3984 32.0781 99.4688 32.0312 99.5312 31.9688C99.9844 31.5 100.406 31.1484 100.797 30.9141C101.203 30.6797 101.531 30.3906 101.781 30.0469L102.625 29.5312C102.797 29.4375 102.961 29.3047 103.117 29.1328C103.258 28.9609 103.438 28.8281 103.656 28.7344C103.75 28.6094 103.812 28.5312 103.844 28.5C103.875 28.4688 103.938 28.3906 104.031 28.2656C104.219 28.1406 104.406 28.0156 104.594 27.8906C104.781 27.7656 104.961 27.6406 105.133 27.5156C105.305 27.3906 105.484 27.2656 105.672 27.1406C105.875 27.0156 106.078 26.8906 106.281 26.7656C106.344 26.6094 106.445 26.4844 106.586 26.3906C106.727 26.2969 106.844 26.2031 106.938 26.1094C107.031 26.0156 107.109 25.9141 107.172 25.8047C107.25 25.6797 107.359 25.6094 107.5 25.5938C107.516 25.4531 107.586 25.3438 107.711 25.2656C107.836 25.1875 107.938 25.0781 108.016 24.9375ZM105.484 7.45312H105.438C105.156 7.51563 104.961 7.65625 104.852 7.875C104.742 8.09375 104.641 8.34375 104.547 8.625C104.484 8.75 104.422 8.85938 104.359 8.95312C104.312 9.04688 104.273 9.125 104.242 9.1875C104.18 9.29688 104.156 9.48438 104.172 9.75C103.688 10.5469 103.227 11.3672 102.789 12.2109C102.352 13.0391 101.93 13.8906 101.523 14.7656C101.133 15.6406 100.734 16.5234 100.328 17.4141C99.9219 18.2891 99.5156 19.1719 99.1094 20.0625C99.75 19.4219 100.336 18.6719 100.867 17.8125C101.133 17.375 101.406 16.9688 101.688 16.5938C101.984 16.2188 102.281 15.875 102.578 15.5625C102.797 15.0312 103.023 14.5156 103.258 14.0156C103.508 13.5156 103.766 13.0391 104.031 12.5859C104.547 11.7109 104.953 10.6719 105.25 9.46875C105.125 9.07812 105.141 8.74219 105.297 8.46094C105.453 8.17969 105.516 7.84375 105.484 7.45312ZM128.781 22.4531C128.938 22.4688 129.039 22.5312 129.086 22.6406C129.133 22.7344 129.219 22.7812 129.344 22.7812C129.406 23.0781 129.344 23.2891 129.156 23.4141C128.969 23.5234 128.906 23.7031 128.969 23.9531C128.688 24.1406 128.344 24.2578 127.938 24.3047C127.516 24.3516 127.203 24.5156 127 24.7969C126.453 25.0625 125.883 25.2266 125.289 25.2891C124.992 25.3203 124.68 25.3672 124.352 25.4297C124.039 25.4766 123.719 25.5312 123.391 25.5938C123.047 25.8281 122.836 25.9531 122.758 25.9688C122.648 25.9844 122.531 26.0312 122.406 26.1094C122.078 25.9844 121.75 25.9219 121.422 25.9219C121.094 25.9219 120.75 25.875 120.391 25.7812C120.219 25.8438 120.039 25.875 119.852 25.875C119.664 25.875 119.484 25.9062 119.312 25.9688C119.188 26.25 119.125 26.5312 119.125 26.8125C119.125 27.1094 119.078 27.3906 118.984 27.6562L118.703 28.2188L118.633 28.6641C118.602 28.8516 118.562 29 118.516 29.1094C118.453 29.2031 118.383 29.3125 118.305 29.4375C118.227 29.5625 118.188 29.7031 118.188 29.8594C117.969 30.1406 117.812 30.4297 117.719 30.7266C117.625 31.0703 117.453 31.3438 117.203 31.5469C117.109 31.875 116.961 32.125 116.758 32.2969C116.555 32.4844 116.359 32.7031 116.172 32.9531C115.828 33.4219 115.523 33.8281 115.258 34.1719C114.992 34.5156 114.641 34.8125 114.203 35.0625C114.047 35.3125 113.859 35.4844 113.641 35.5781C113.484 35.7344 113.359 35.8906 113.266 36.0469L112.328 36.6094C111.953 36.8438 111.594 37 111.25 37.0781C110.719 37.2031 110.203 37.1875 109.703 37.0312C109.203 36.875 108.734 36.6562 108.297 36.375C108 36.4062 107.773 36.3516 107.617 36.2109C107.461 36.0859 107.25 35.9844 106.984 35.9062C106.641 35.5938 106.266 35.3125 105.859 35.0625C105.438 34.7969 105.141 34.4531 104.969 34.0312L104.758 33C104.695 32.6875 104.625 32.375 104.547 32.0625C104.484 31.7969 104.477 31.5 104.523 31.1719C104.57 30.8906 104.578 30.5781 104.547 30.2344C104.547 30.0625 104.547 29.9062 104.547 29.7656C104.547 29.6094 104.539 29.4766 104.523 29.3672C104.508 29.1328 104.578 28.8438 104.734 28.5C104.828 28.2969 104.906 28.1094 104.969 27.9375C105.031 27.7656 105.078 27.6172 105.109 27.4922C105.141 27.3672 105.172 27.25 105.203 27.1406C105.234 27.0156 105.266 26.9062 105.297 26.8125C105.344 26.7344 105.391 26.6562 105.438 26.5781C105.484 26.4844 105.531 26.3906 105.578 26.2969C105.625 26.2031 105.672 26.1172 105.719 26.0391C105.781 25.9453 105.844 25.8594 105.906 25.7812C106.094 25.5 106.312 25.2188 106.562 24.9375C106.812 24.6562 107.062 24.3906 107.312 24.1406C107.484 23.9062 107.656 23.7031 107.828 23.5312C108.109 23.25 108.375 23.0156 108.625 22.8281C108.875 22.6406 109.156 22.3906 109.469 22.0781C109.531 21.9844 109.609 21.9062 109.703 21.8438L109.984 21.6562C110.297 21.4688 110.586 21.3125 110.852 21.1875C111.117 21.0625 111.422 20.9219 111.766 20.7656C112.062 20.625 112.305 20.5391 112.492 20.5078C112.617 20.4766 112.742 20.4531 112.867 20.4375C113.008 20.4062 113.156 20.375 113.312 20.3438H113.875C114.047 20.3438 114.203 20.3125 114.344 20.25C114.25 20 114.359 19.8281 114.672 19.7344C114.984 19.6406 115.219 19.6094 115.375 19.6406C115.688 19.6406 115.938 19.7109 116.125 19.8516C116.312 19.9922 116.484 20.1562 116.641 20.3438C116.953 20.5625 117.297 20.8906 117.672 21.3281C117.75 21.4062 117.828 21.4531 117.906 21.4688C117.984 21.4844 118.062 21.5312 118.141 21.6094C118.266 21.7969 118.352 21.9688 118.398 22.125C118.445 22.3125 118.547 22.4844 118.703 22.6406C118.797 22.7031 118.891 22.7812 118.984 22.875C119.078 22.9688 119.141 23.0938 119.172 23.25C119.5 23.375 119.797 23.4688 120.062 23.5312C120.203 23.5938 120.367 23.6094 120.555 23.5781C120.727 23.5469 120.922 23.5469 121.141 23.5781C121.281 23.5938 121.422 23.6328 121.562 23.6953C121.688 23.7422 121.828 23.7656 121.984 23.7656C122.219 23.75 122.477 23.6875 122.758 23.5781C123.023 23.4844 123.328 23.4688 123.672 23.5312C124.141 23.6406 124.633 23.5938 125.148 23.3906C125.664 23.1719 126.188 23.0312 126.719 22.9688C126.875 22.9688 126.984 22.9609 127.047 22.9453C127.109 22.9297 127.219 22.9219 127.375 22.9219C127.531 22.7969 127.734 22.7031 127.984 22.6406C128.234 22.5781 128.5 22.5156 128.781 22.4531ZM115.375 23.8594C115.062 23.5781 114.883 23.3984 114.836 23.3203C114.773 23.2266 114.719 23.1719 114.672 23.1562C114.531 23.0156 114.375 22.9375 114.203 22.9219C114.109 22.9062 114.016 22.8906 113.922 22.875C113.844 22.8594 113.766 22.8438 113.688 22.8281C113.188 22.7344 112.773 22.7891 112.445 22.9922C112.289 23.1016 112.125 23.2031 111.953 23.2969C111.797 23.3906 111.641 23.4844 111.484 23.5781C110.984 23.8906 110.547 24.2812 110.172 24.75C110.078 24.9062 109.977 25.0781 109.867 25.2656C109.758 25.4531 109.672 25.6562 109.609 25.875C109.484 26.125 109.375 26.3516 109.281 26.5547C109.188 26.7578 109.109 27 109.047 27.2812C108.891 27.5781 108.797 27.8359 108.766 28.0547C108.75 28.1641 108.734 28.2656 108.719 28.3594C108.703 28.4375 108.688 28.5156 108.672 28.5938C108.656 28.75 108.633 28.9141 108.602 29.0859C108.57 29.2422 108.539 29.4062 108.508 29.5781C108.43 29.9688 108.391 30.2656 108.391 30.4688C108.422 30.5625 108.469 30.6875 108.531 30.8438C108.594 31 108.656 31.1094 108.719 31.1719C108.781 31.3281 108.852 31.5 108.93 31.6875C109.008 31.875 109.078 32.0156 109.141 32.1094C109.312 32.3281 109.516 32.4688 109.75 32.5312C109.875 32.5625 110.008 32.6016 110.148 32.6484C110.289 32.6797 110.438 32.7188 110.594 32.7656C110.938 32.9531 111.172 33.0312 111.297 33C111.453 32.9688 111.547 32.9531 111.578 32.9531C112 32.875 112.359 32.7031 112.656 32.4375C112.922 32.1875 113.234 31.9688 113.594 31.7812C113.719 31.5938 113.844 31.3984 113.969 31.1953C114.109 30.9922 114.258 30.7891 114.414 30.5859C114.57 30.3672 114.711 30.1562 114.836 29.9531C114.977 29.7344 115.109 29.5156 115.234 29.2969C115.312 29.2031 115.391 29.0625 115.469 28.875C115.5 28.7969 115.531 28.7266 115.562 28.6641C115.594 28.5859 115.625 28.5156 115.656 28.4531C115.875 28.1875 115.977 28.0469 115.961 28.0312C115.945 28.0156 115.953 27.9688 115.984 27.8906C116.188 27.4219 116.281 27.0625 116.266 26.8125C116.25 26.5625 116.25 26.3125 116.266 26.0625C116.188 25.8906 116.117 25.7109 116.055 25.5234C115.992 25.3359 115.93 25.1406 115.867 24.9375C115.742 24.5156 115.578 24.1562 115.375 23.8594ZM136.984 24.2812C137.047 24.3281 137.133 24.2734 137.242 24.1172C137.305 24.0391 137.352 23.9688 137.383 23.9062C137.43 23.8281 137.469 23.7656 137.5 23.7188C137.562 23.5781 137.617 23.4219 137.664 23.25C137.711 23.0781 137.766 22.9219 137.828 22.7812C138.016 22.4219 138.258 22.0625 138.555 21.7031C138.836 21.3594 139.062 21 139.234 20.625C139.281 20.5781 139.352 20.5234 139.445 20.4609C139.523 20.4141 139.594 20.3438 139.656 20.25C139.906 20.2188 140.078 20.1875 140.172 20.1562C140.266 20.125 140.359 20.0781 140.453 20.0156C140.797 20.1094 141.016 20.375 141.109 20.8125C141.094 21.0469 140.992 21.2422 140.805 21.3984C140.648 21.5391 140.531 21.7188 140.453 21.9375C140.375 22.0625 140.352 22.1875 140.383 22.3125C140.414 22.4375 140.391 22.5625 140.312 22.6875C140.156 23.2031 139.945 23.7031 139.68 24.1875C139.398 24.7031 139.172 25.2031 139 25.6875C138.844 26 138.695 26.3125 138.555 26.625C138.414 26.9375 138.297 27.2656 138.203 27.6094C137.859 28.2344 137.531 28.8906 137.219 29.5781C136.922 30.25 136.594 30.9531 136.234 31.6875C136.531 31.6094 136.781 31.4922 136.984 31.3359C137.203 31.1641 137.438 31 137.688 30.8438L138.109 30.6797C138.172 30.6484 138.234 30.625 138.297 30.6094C138.375 30.5781 138.453 30.5469 138.531 30.5156L139.117 30.1406C139.18 30.1094 139.234 30.0781 139.281 30.0469C139.344 30.0156 139.406 29.9844 139.469 29.9531L139.75 29.7422C139.812 29.6953 139.922 29.625 140.078 29.5312C140.156 29.4531 140.242 29.4062 140.336 29.3906C140.43 29.375 140.516 29.3281 140.594 29.25C140.781 29.1719 140.922 29.0938 141.016 29.0156C141.141 28.9219 141.281 28.8281 141.438 28.7344C141.625 28.6406 141.789 28.5469 141.93 28.4531C142.039 28.375 142.219 28.2969 142.469 28.2188C142.656 28.1406 142.844 28.0469 143.031 27.9375C143.125 27.9062 143.219 27.8594 143.312 27.7969C143.406 27.7188 143.484 27.6719 143.547 27.6562C143.75 27.5781 143.859 27.5312 143.875 27.5156C143.922 27.4688 143.969 27.4375 144.016 27.4219C144.297 27.3281 144.477 27.2656 144.555 27.2344C144.586 27.2188 144.641 27.1719 144.719 27.0938C145.078 26.8438 145.359 26.6953 145.562 26.6484C145.781 26.5859 146.078 26.4375 146.453 26.2031C146.688 26.2344 146.859 26.2422 146.969 26.2266C147.125 26.2109 147.266 26.2656 147.391 26.3906C147.266 26.9844 147.039 27.3828 146.711 27.5859C146.383 27.7891 146.031 27.9688 145.656 28.125C145.125 28.5938 144.672 28.9609 144.297 29.2266C143.922 29.4922 143.438 29.8125 142.844 30.1875C142.438 30.3594 142.109 30.5312 141.859 30.7031C141.578 30.7031 141.367 30.75 141.227 30.8438C141.039 30.9688 140.891 31.0625 140.781 31.125C140.672 31.1875 140.539 31.2344 140.383 31.2656C140.227 31.2969 140.094 31.3438 139.984 31.4062C139.672 31.5938 139.477 31.7031 139.398 31.7344C139.336 31.75 139.266 31.7969 139.188 31.875C138.875 32.2969 138.578 32.5625 138.297 32.6719C138 32.7969 137.75 32.9844 137.547 33.2344C137.016 33.3906 136.578 33.6406 136.234 33.9844C135.875 34.3438 135.469 34.625 135.016 34.8281C134.75 35.5781 134.539 36.2969 134.383 36.9844C134.227 37.7031 134.016 38.4062 133.75 39.0938L132.977 41.25C132.852 41.6094 132.727 41.9688 132.602 42.3281C132.492 42.7031 132.391 43.0781 132.297 43.4531C131.953 44.0156 131.672 44.6562 131.453 45.375C131.344 45.7188 131.219 46.0625 131.078 46.4062C130.953 46.75 130.812 47.0938 130.656 47.4375C130.422 47.6094 130.242 47.875 130.117 48.2344C129.992 48.5938 129.797 48.875 129.531 49.0781C129.375 49.4219 129.156 49.7109 128.875 49.9453C128.594 50.1797 128.328 50.4219 128.078 50.6719C127.938 50.8125 127.812 50.9688 127.703 51.1406C127.344 51.5 126.938 51.8828 126.484 52.2891C126.047 52.6797 125.656 53.0938 125.312 53.5312C124.969 53.75 124.656 53.9844 124.375 54.2344C124.094 54.4844 123.812 54.75 123.531 55.0312L123.133 55.1953C123.023 55.2422 122.906 55.2188 122.781 55.125C122.469 55.2188 122.141 55.2344 121.797 55.1719C121.453 55.1094 121.312 54.9062 121.375 54.5625C121.172 54.3906 121.062 54.2578 121.047 54.1641C121.031 54.0391 120.984 53.9219 120.906 53.8125C121.016 53.5625 121.016 53.3359 120.906 53.1328C120.781 52.9141 120.719 52.7344 120.719 52.5938C120.719 52.1875 120.766 51.7969 120.859 51.4219C120.938 51 121.039 50.6484 121.164 50.3672L121.609 49.4062C121.797 48.9688 121.961 48.5547 122.102 48.1641C122.242 47.7734 122.391 47.3594 122.547 46.9219C122.781 46.5312 122.93 46.1641 122.992 45.8203C123.055 45.4297 123.172 45.0469 123.344 44.6719C123.406 44.5469 123.469 44.4219 123.531 44.2969C123.609 44.1719 123.68 44.0547 123.742 43.9453C123.898 43.6953 123.984 43.4531 124 43.2188C124.125 42.9844 124.25 42.7578 124.375 42.5391C124.516 42.3359 124.664 42.1406 124.82 41.9531C125.133 41.5781 125.391 41.1562 125.594 40.6875C126.406 39.5312 127.344 38.5234 128.406 37.6641C129.469 36.8047 130.547 35.9688 131.641 35.1562C131.844 34.9062 131.961 34.7734 131.992 34.7578C132.023 34.7422 132.055 34.7266 132.086 34.7109C132.133 34.6953 132.266 34.5781 132.484 34.3594C132.531 34.3438 132.57 34.2812 132.602 34.1719C132.633 34.0625 132.688 33.9688 132.766 33.8906C132.891 33.5469 133.023 33.1875 133.164 32.8125C133.32 32.4219 133.484 32.0078 133.656 31.5703C133.828 31.1328 133.977 30.7422 134.102 30.3984C134.227 30.0391 134.328 29.7188 134.406 29.4375C134.234 29.5156 134.117 29.625 134.055 29.7656C133.992 29.9062 133.906 30.0312 133.797 30.1406C133.734 30.2344 133.656 30.3125 133.562 30.375C133.438 30.4688 133.359 30.5312 133.328 30.5625C133.234 30.6562 133.156 30.7266 133.094 30.7734C133.031 30.8203 132.953 30.9062 132.859 31.0312C132.562 31.2812 132.258 31.5781 131.945 31.9219C131.648 32.25 131.344 32.5469 131.031 32.8125C130.781 33.1562 130.523 33.4766 130.258 33.7734C129.992 34.0703 129.688 34.3125 129.344 34.5C128.875 34.8438 128.391 35.125 127.891 35.3438C127.391 35.5625 126.922 35.75 126.484 35.9062L125.852 36.1172C125.617 36.1953 125.438 36.2344 125.312 36.2344C125.219 36.2656 125.141 36.2734 125.078 36.2578C125.016 36.2422 124.922 36.2344 124.797 36.2344C124.328 36.2344 123.906 36.1719 123.531 36.0469C123.438 35.9844 123.359 35.9297 123.297 35.8828C123.234 35.8359 123.172 35.75 123.109 35.625C123.047 35.5625 122.969 35.4766 122.875 35.3672C122.781 35.2578 122.703 35.1562 122.641 35.0625C122.578 34.9219 122.547 34.7578 122.547 34.5703C122.547 34.3828 122.516 34.2188 122.453 34.0781C122.422 33.9219 122.391 33.7734 122.359 33.6328C122.312 33.4766 122.266 33.3359 122.219 33.2109C122.125 32.9297 122.109 32.6562 122.172 32.3906C122.188 32.3438 122.203 32.2969 122.219 32.25C122.234 32.2031 122.25 32.1641 122.266 32.1328C122.297 32.0547 122.297 31.9688 122.266 31.875C122.25 31.8125 122.211 31.7188 122.148 31.5938C122.086 31.4688 122.047 31.375 122.031 31.3125C121.875 31.0625 121.797 30.8594 121.797 30.7031C121.781 30.5312 121.805 30.3672 121.867 30.2109C121.945 30.0234 121.953 29.875 121.891 29.7656C122 29.5312 122.086 29.3125 122.148 29.1094C122.227 28.8906 122.344 28.6875 122.5 28.5C122.734 28.1562 122.883 27.8984 122.945 27.7266C122.977 27.6172 123.023 27.5234 123.086 27.4453C123.133 27.3516 123.188 27.2656 123.25 27.1875C123.438 26.875 123.602 26.625 123.742 26.4375C123.914 26.2188 124.078 25.9844 124.234 25.7344C124.828 24.7031 125.484 23.7656 126.203 22.9219C126.312 22.8594 126.422 22.8125 126.531 22.7812C126.625 22.75 126.688 22.6719 126.719 22.5469C127.438 22.2031 128.125 21.8281 128.781 21.4219C129.141 21.3281 129.445 21.1641 129.695 20.9297C129.961 20.6797 130.266 20.5 130.609 20.3906C130.875 20.2812 131.172 20.125 131.5 19.9219C131.812 19.7188 132.141 19.6094 132.484 19.5938C132.797 19.5938 133.031 19.5469 133.188 19.4531C133.344 19.3594 133.5 19.2656 133.656 19.1719C134.094 18.9219 134.594 18.8125 135.156 18.8438C135.422 19.0938 135.68 19.2812 135.93 19.4062C136.18 19.5156 136.391 19.7188 136.562 20.0156C136.609 20.0938 136.648 20.25 136.68 20.4844L136.75 21.0938C136.812 21.25 136.867 21.4141 136.914 21.5859C136.961 21.7578 137 21.9219 137.031 22.0781C137.062 22.5 137.055 22.875 137.008 23.2031C136.961 23.5312 136.953 23.8906 136.984 24.2812ZM134.547 22.3125H134.5C134.391 22.4062 134.258 22.4531 134.102 22.4531C133.945 22.4531 133.812 22.4844 133.703 22.5469C133.656 22.5938 133.586 22.6484 133.492 22.7109C133.398 22.7734 133.328 22.8281 133.281 22.875C133.141 22.9531 132.992 23.0234 132.836 23.0859C132.695 23.1484 132.539 23.2109 132.367 23.2734C132.008 23.3984 131.719 23.5312 131.5 23.6719C131.359 23.7656 131.234 23.8984 131.125 24.0703C131.031 24.2109 130.906 24.3281 130.75 24.4219C130.656 24.4844 130.562 24.5469 130.469 24.6094C130.375 24.6562 130.273 24.7031 130.164 24.75C129.961 24.8438 129.781 24.9688 129.625 25.125C129.531 25.2188 129.461 25.3125 129.414 25.4062C129.367 25.5 129.266 25.5469 129.109 25.5469C128.766 26.1875 128.344 26.7812 127.844 27.3281C127.328 27.9062 126.922 28.5156 126.625 29.1562C126.469 29.2188 126.367 29.3281 126.32 29.4844C126.289 29.6094 126.219 29.7656 126.109 29.9531C125.766 30.5625 125.633 31.0391 125.711 31.3828C125.742 31.5391 125.773 31.7031 125.805 31.875C125.836 32.0312 125.859 32.1875 125.875 32.3438C126.062 32.5938 126.32 32.6641 126.648 32.5547C126.977 32.4453 127.266 32.3125 127.516 32.1562C127.828 31.9375 128.133 31.6953 128.43 31.4297C128.727 31.1641 129.031 30.8906 129.344 30.6094C129.656 30.3594 129.945 30.0859 130.211 29.7891C130.477 29.4922 130.734 29.2031 130.984 28.9219C131.062 28.8125 131.188 28.6875 131.359 28.5469C131.531 28.4062 131.656 28.2812 131.734 28.1719C131.938 27.9688 132.078 27.8203 132.156 27.7266C132.281 27.5859 132.422 27.4688 132.578 27.375C132.703 27.2031 132.82 27.0391 132.93 26.8828C133.039 26.7109 133.148 26.5469 133.258 26.3906C133.367 26.2344 133.477 26.0859 133.586 25.9453C133.695 25.7891 133.812 25.6406 133.938 25.5C134.109 25.0938 134.273 24.7188 134.43 24.375C134.508 24.2031 134.586 24.0312 134.664 23.8594C134.742 23.6719 134.812 23.4844 134.875 23.2969C134.812 23.1562 134.781 22.9766 134.781 22.7578C134.781 22.5547 134.703 22.4062 134.547 22.3125ZM130.703 39.2812C130.625 39.2969 130.539 39.3516 130.445 39.4453C130.398 39.4922 130.297 39.5781 130.141 39.7031C129.828 40.0156 129.523 40.3359 129.227 40.6641C128.93 40.9922 128.656 41.3594 128.406 41.7656C128.125 42.1562 127.805 42.5469 127.445 42.9375C127.07 43.3281 126.828 43.75 126.719 44.2031C126.375 44.7344 126.07 45.2812 125.805 45.8438C125.539 46.4062 125.328 47.0312 125.172 47.7188C125.141 47.9062 125.109 48.0703 125.078 48.2109C125.047 48.3672 125.016 48.5 124.984 48.6094C124.922 48.8125 124.875 49.0312 124.844 49.2656C125.031 49.0781 125.227 48.8828 125.43 48.6797C125.633 48.4766 125.812 48.2812 125.969 48.0938C126.031 48.0312 126.086 47.9531 126.133 47.8594C126.18 47.7656 126.234 47.6875 126.297 47.625C126.484 47.3594 126.672 47.0938 126.859 46.8281C127.062 46.5781 127.266 46.3281 127.469 46.0781C127.875 45.5781 128.25 45.0625 128.594 44.5312C128.75 44.3438 128.891 44.1641 129.016 43.9922C129.141 43.8203 129.266 43.6406 129.391 43.4531C129.969 42.6719 130.406 41.8359 130.703 40.9453C131.016 40.0547 131.344 39.1406 131.688 38.2031C131.594 38.2969 131.5 38.3828 131.406 38.4609C131.312 38.5391 131.227 38.6172 131.148 38.6953C130.945 38.8672 130.797 39.0625 130.703 39.2812Z" fill="black"/>
<path d="M68.47 55V45.2H72.292C73.1507 45.2 73.8833 45.3353 74.49 45.606C75.0967 45.8767 75.5633 46.2687 75.89 46.782C76.2167 47.2953 76.38 47.9067 76.38 48.616C76.38 49.3253 76.2167 49.9367 75.89 50.45C75.5633 50.954 75.0967 51.346 74.49 51.626C73.8833 51.8967 73.1507 52.032 72.292 52.032H69.24L69.87 51.374V55H68.47ZM69.87 51.514L69.24 50.814H72.25C73.146 50.814 73.8227 50.6227 74.28 50.24C74.7467 49.8573 74.98 49.316 74.98 48.616C74.98 47.916 74.7467 47.3747 74.28 46.992C73.8227 46.6093 73.146 46.418 72.25 46.418H69.24L69.87 45.718V51.514ZM81.3915 55.084C80.6448 55.084 79.9821 54.9207 79.4035 54.594C78.8248 54.2673 78.3675 53.8193 78.0315 53.25C77.6955 52.6713 77.5275 52.018 77.5275 51.29C77.5275 50.5527 77.6955 49.8993 78.0315 49.33C78.3675 48.7607 78.8248 48.3173 79.4035 48C79.9821 47.6733 80.6448 47.51 81.3915 47.51C82.1288 47.51 82.7868 47.6733 83.3655 48C83.9535 48.3173 84.4108 48.7607 84.7375 49.33C85.0735 49.89 85.2415 50.5433 85.2415 51.29C85.2415 52.0273 85.0735 52.6807 84.7375 53.25C84.4108 53.8193 83.9535 54.2673 83.3655 54.594C82.7868 54.9207 82.1288 55.084 81.3915 55.084ZM81.3915 53.908C81.8675 53.908 82.2921 53.8007 82.6655 53.586C83.0481 53.3713 83.3468 53.068 83.5615 52.676C83.7761 52.2747 83.8835 51.8127 83.8835 51.29C83.8835 50.758 83.7761 50.3007 83.5615 49.918C83.3468 49.526 83.0481 49.2227 82.6655 49.008C82.2921 48.7933 81.8675 48.686 81.3915 48.686C80.9155 48.686 80.4908 48.7933 80.1175 49.008C79.7441 49.2227 79.4455 49.526 79.2215 49.918C78.9975 50.3007 78.8855 50.758 78.8855 51.29C78.8855 51.8127 78.9975 52.2747 79.2215 52.676C79.4455 53.068 79.7441 53.3713 80.1175 53.586C80.4908 53.8007 80.9155 53.908 81.3915 53.908ZM89.2282 55.084C88.6122 55.084 88.0242 55 87.4642 54.832C86.9135 54.664 86.4795 54.4587 86.1622 54.216L86.7222 53.152C87.0395 53.3667 87.4315 53.5487 87.8982 53.698C88.3648 53.8473 88.8408 53.922 89.3262 53.922C89.9515 53.922 90.3995 53.8333 90.6702 53.656C90.9502 53.4787 91.0902 53.2313 91.0902 52.914C91.0902 52.6807 91.0062 52.4987 90.8382 52.368C90.6702 52.2373 90.4462 52.1393 90.1662 52.074C89.8955 52.0087 89.5922 51.9527 89.2562 51.906C88.9202 51.85 88.5842 51.7847 88.2482 51.71C87.9122 51.626 87.6042 51.514 87.3242 51.374C87.0442 51.2247 86.8202 51.024 86.6522 50.772C86.4842 50.5107 86.4002 50.1653 86.4002 49.736C86.4002 49.288 86.5262 48.896 86.7782 48.56C87.0302 48.224 87.3848 47.9673 87.8422 47.79C88.3088 47.6033 88.8595 47.51 89.4942 47.51C89.9795 47.51 90.4695 47.5707 90.9642 47.692C91.4682 47.804 91.8788 47.9673 92.1962 48.182L91.6222 49.246C91.2862 49.022 90.9362 48.868 90.5722 48.784C90.2082 48.7 89.8442 48.658 89.4802 48.658C88.8922 48.658 88.4535 48.756 88.1642 48.952C87.8748 49.1387 87.7302 49.3813 87.7302 49.68C87.7302 49.932 87.8142 50.128 87.9822 50.268C88.1595 50.3987 88.3835 50.5013 88.6542 50.576C88.9342 50.6507 89.2422 50.716 89.5782 50.772C89.9142 50.8187 90.2502 50.884 90.5862 50.968C90.9222 51.0427 91.2255 51.15 91.4962 51.29C91.7762 51.43 92.0002 51.626 92.1682 51.878C92.3455 52.13 92.4342 52.466 92.4342 52.886C92.4342 53.334 92.3035 53.7213 92.0422 54.048C91.7808 54.3747 91.4122 54.6313 90.9362 54.818C90.4602 54.9953 89.8908 55.084 89.2282 55.084ZM96.6618 55.084C95.9152 55.084 95.3365 54.8833 94.9258 54.482C94.5152 54.0807 94.3098 53.5067 94.3098 52.76V45.956H95.6538V52.704C95.6538 53.1053 95.7518 53.4133 95.9478 53.628C96.1532 53.8427 96.4425 53.95 96.8158 53.95C97.2358 53.95 97.5858 53.8333 97.8658 53.6L98.2858 54.566C98.0805 54.7433 97.8332 54.874 97.5438 54.958C97.2638 55.042 96.9698 55.084 96.6618 55.084ZM93.0498 48.686V47.58H97.7818V48.686H93.0498ZM102.039 55.084C101.423 55.084 100.835 55 100.275 54.832C99.7241 54.664 99.2901 54.4587 98.9727 54.216L99.5327 53.152C99.8501 53.3667 100.242 53.5487 100.709 53.698C101.175 53.8473 101.651 53.922 102.137 53.922C102.762 53.922 103.21 53.8333 103.481 53.656C103.761 53.4787 103.901 53.2313 103.901 52.914C103.901 52.6807 103.817 52.4987 103.649 52.368C103.481 52.2373 103.257 52.1393 102.977 52.074C102.706 52.0087 102.403 51.9527 102.067 51.906C101.731 51.85 101.395 51.7847 101.059 51.71C100.723 51.626 100.415 51.514 100.135 51.374C99.8547 51.2247 99.6307 51.024 99.4627 50.772C99.2947 50.5107 99.2107 50.1653 99.2107 49.736C99.2107 49.288 99.3367 48.896 99.5887 48.56C99.8407 48.224 100.195 47.9673 100.653 47.79C101.119 47.6033 101.67 47.51 102.305 47.51C102.79 47.51 103.28 47.5707 103.775 47.692C104.279 47.804 104.689 47.9673 105.007 48.182L104.433 49.246C104.097 49.022 103.747 48.868 103.383 48.784C103.019 48.7 102.655 48.658 102.291 48.658C101.703 48.658 101.264 48.756 100.975 48.952C100.685 49.1387 100.541 49.3813 100.541 49.68C100.541 49.932 100.625 50.128 100.793 50.268C100.97 50.3987 101.194 50.5013 101.465 50.576C101.745 50.6507 102.053 50.716 102.389 50.772C102.725 50.8187 103.061 50.884 103.397 50.968C103.733 51.0427 104.036 51.15 104.307 51.29C104.587 51.43 104.811 51.626 104.979 51.878C105.156 52.13 105.245 52.466 105.245 52.886C105.245 53.334 105.114 53.7213 104.853 54.048C104.591 54.3747 104.223 54.6313 103.747 54.818C103.271 54.9953 102.701 55.084 102.039 55.084Z" fill="black"/>
</svg>
